<svg width="55" height="52" viewBox="0 0 55 52" fill="none" xmlns="http://www.w3.org/2000/svg">
<path d="M53.2 42.1623L7.29996 42.7034L6.825 2.41647C6.81119 1.24496 6.03926 0.305068 5.10001 0.316141L1.7 0.356225C0.760751 0.367298 0.0111864 1.32513 0.0249976 2.49663L0.549948 47.0243C0.577555 49.366 2.12251 51.2471 3.99995 51.225L53.3 50.6438C54.2393 50.6327 54.9888 49.6749 54.975 48.5034L54.925 44.2626C54.9112 43.0911 54.1393 42.1512 53.2 42.1623ZM49.35 4.03579L36.8062 4.18367C34.5345 4.21045 33.437 7.64958 35.0671 9.63439L38.5602 13.8875L30.8793 23.704L22.9691 14.0727C21.6214 12.4318 19.4688 12.4572 18.1613 14.1294L10.9703 23.3184C10.316 24.1545 10.3318 25.497 11.0056 26.3174L13.4444 29.2867C14.1182 30.1072 15.1945 30.0945 15.8488 29.2584L20.6707 23.0954L28.5809 32.7267C29.9286 34.3675 32.0812 34.3422 33.3887 32.67L43.4387 19.8275L46.9319 24.0807C48.562 26.0655 51.2918 24.6138 51.2584 21.7805L51.074 6.13612C51.0612 4.96461 50.2893 4.02471 49.35 4.03579Z" fill="black"/>
</svg>
