<svg width="59" height="47" viewBox="0 0 59 47" fill="none" xmlns="http://www.w3.org/2000/svg">
<path d="M56.2201 38.7482L7.28532 38.517L7.45499 2.60763C7.45992 1.56342 6.65287 0.713832 5.65152 0.709101L2.02672 0.691974C1.02537 0.687243 0.210329 1.52917 0.205395 2.57338L0.0178664 42.2626C0.00800441 44.3499 1.62324 46.0502 3.6248 46.0597L56.1844 46.308C57.1857 46.3128 58.0008 45.4708 58.0057 44.4266L58.0236 40.6467C58.0285 39.6025 57.2214 38.7529 56.2201 38.7482ZM52.756 4.71168L39.3828 4.64849C36.961 4.63705 35.7334 7.68479 37.4377 9.4789L41.0897 13.3234L32.7377 21.952L24.4677 13.2461C23.0587 11.7628 20.7638 11.752 19.342 13.2218L11.5228 21.2989C10.8114 22.0339 10.8057 23.2304 11.5102 23.9721L14.0598 26.6561C14.7643 27.3977 15.9118 27.4031 16.6233 26.6682L21.8664 21.2509L30.1364 29.9569C31.5454 31.4401 33.8404 31.4509 35.2621 29.9811L46.1901 18.6927L49.8421 22.5372C51.5464 24.3313 54.4805 23.0801 54.4925 20.5546L54.5584 6.6102C54.5644 5.566 53.7574 4.71641 52.756 4.71168Z" fill="black"/>
</svg>
