<svg width="25" height="25" viewBox="0 0 52 53" fill="none" xmlns="http://www.w3.org/2000/svg">
<path d="M0 47.6616C0 50.3576 2.49554 52.545 5.57143 52.545H46.4286C49.5045 52.545 52 50.3576 52 47.6616V19.9887H0V47.6616ZM37.1429 27.7208C37.1429 27.0494 37.7696 26.5 38.5357 26.5H43.1786C43.9446 26.5 44.5714 27.0494 44.5714 27.7208V31.7904C44.5714 32.4619 43.9446 33.0112 43.1786 33.0112H38.5357C37.7696 33.0112 37.1429 32.4619 37.1429 31.7904V27.7208ZM37.1429 40.7434C37.1429 40.0719 37.7696 39.5225 38.5357 39.5225H43.1786C43.9446 39.5225 44.5714 40.0719 44.5714 40.7434V44.8129C44.5714 45.4844 43.9446 46.0338 43.1786 46.0338H38.5357C37.7696 46.0338 37.1429 45.4844 37.1429 44.8129V40.7434ZM22.2857 27.7208C22.2857 27.0494 22.9125 26.5 23.6786 26.5H28.3214C29.0875 26.5 29.7143 27.0494 29.7143 27.7208V31.7904C29.7143 32.4619 29.0875 33.0112 28.3214 33.0112H23.6786C22.9125 33.0112 22.2857 32.4619 22.2857 31.7904V27.7208ZM22.2857 40.7434C22.2857 40.0719 22.9125 39.5225 23.6786 39.5225H28.3214C29.0875 39.5225 29.7143 40.0719 29.7143 40.7434V44.8129C29.7143 45.4844 29.0875 46.0338 28.3214 46.0338H23.6786C22.9125 46.0338 22.2857 45.4844 22.2857 44.8129V40.7434ZM7.42857 27.7208C7.42857 27.0494 8.05536 26.5 8.82143 26.5H13.4643C14.2304 26.5 14.8571 27.0494 14.8571 27.7208V31.7904C14.8571 32.4619 14.2304 33.0112 13.4643 33.0112H8.82143C8.05536 33.0112 7.42857 32.4619 7.42857 31.7904V27.7208ZM7.42857 40.7434C7.42857 40.0719 8.05536 39.5225 8.82143 39.5225H13.4643C14.2304 39.5225 14.8571 40.0719 14.8571 40.7434V44.8129C14.8571 45.4844 14.2304 46.0338 13.4643 46.0338H8.82143C8.05536 46.0338 7.42857 45.4844 7.42857 44.8129V40.7434ZM46.4286 6.96621H40.8571V2.08277C40.8571 1.18747 40.0214 0.454956 39 0.454956H35.2857C34.2643 0.454956 33.4286 1.18747 33.4286 2.08277V6.96621H18.5714V2.08277C18.5714 1.18747 17.7357 0.454956 16.7143 0.454956H13C11.9786 0.454956 11.1429 1.18747 11.1429 2.08277V6.96621H5.57143C2.49554 6.96621 0 9.15359 0 11.8497V16.7331H52V11.8497C52 9.15359 49.5045 6.96621 46.4286 6.96621Z" fill="white"/>
</svg>
