<svg width="25" height="25" viewBox="0 0 56 43" fill="none" xmlns="http://www.w3.org/2000/svg">
<path d="M50.4438 9.5H8.75C7.78312 9.5 7 8.82875 7 8C7 7.17125 7.78312 6.5 8.75 6.5H50.75C51.7169 6.5 52.5 5.82875 52.5 5C52.5 2.51469 50.1495 0.5 47.25 0.5H7C3.13359 0.5 0 3.18594 0 6.5V36.5C0 39.8141 3.13359 42.5 7 42.5H50.4438C53.5084 42.5 56 40.4816 56 38V14C56 11.5184 53.5084 9.5 50.4438 9.5ZM45.5 29C43.5673 29 42 27.6566 42 26C42 24.3434 43.5673 23 45.5 23C47.4327 23 49 24.3434 49 26C49 27.6566 47.4327 29 45.5 29Z" fill="white"/>
</svg>
