<svg width="25" height="25" viewBox="0 0 42 28" fill="none" xmlns="http://www.w3.org/2000/svg">
<path d="M40.25 0.5H8.16667C6.64577 0.5 5.34895 1.44057 4.86733 2.75H1.75C0.78349 2.75 0 3.50551 0 4.4375V23.5625C0 25.7371 1.82817 27.5 4.08333 27.5H40.25C41.2165 27.5 42 26.7445 42 25.8125V2.1875C42 1.25551 41.2165 0.5 40.25 0.5ZM3.5 23.5625V6.125H4.66667V23.5625C4.66667 23.8726 4.40497 24.125 4.08333 24.125C3.7617 24.125 3.5 23.8726 3.5 23.5625ZM38.5 24.125H8.12452C8.15179 23.9412 8.16667 23.7535 8.16667 23.5625V3.875H38.5V24.125ZM12.5417 15.6875H22.4583C22.9416 15.6875 23.3333 15.3097 23.3333 14.8438V8.09375C23.3333 7.62779 22.9416 7.25 22.4583 7.25H12.5417C12.0584 7.25 11.6667 7.62779 11.6667 8.09375V14.8438C11.6667 15.3097 12.0584 15.6875 12.5417 15.6875ZM14.5833 10.0625H20.4167V12.875H14.5833V10.0625ZM11.6667 19.9062V18.2188C11.6667 17.7528 12.0584 17.375 12.5417 17.375H22.4583C22.9416 17.375 23.3333 17.7528 23.3333 18.2188V19.9062C23.3333 20.3722 22.9416 20.75 22.4583 20.75H12.5417C12.0584 20.75 11.6667 20.3722 11.6667 19.9062ZM25.6667 19.9062V18.2188C25.6667 17.7528 26.0584 17.375 26.5417 17.375H34.125C34.6082 17.375 35 17.7528 35 18.2188V19.9062C35 20.3722 34.6082 20.75 34.125 20.75H26.5417C26.0584 20.75 25.6667 20.3722 25.6667 19.9062ZM25.6667 9.78125V8.09375C25.6667 7.62779 26.0584 7.25 26.5417 7.25H34.125C34.6082 7.25 35 7.62779 35 8.09375V9.78125C35 10.2472 34.6082 10.625 34.125 10.625H26.5417C26.0584 10.625 25.6667 10.2472 25.6667 9.78125ZM25.6667 14.8438V13.1562C25.6667 12.6903 26.0584 12.3125 26.5417 12.3125H34.125C34.6082 12.3125 35 12.6903 35 13.1562V14.8438C35 15.3097 34.6082 15.6875 34.125 15.6875H26.5417C26.0584 15.6875 25.6667 15.3097 25.6667 14.8438Z" fill="white"/>
</svg>
