<svg width="25" height="25" viewBox="0 0 55 50" fill="none" xmlns="http://www.w3.org/2000/svg">
<path d="M53.2812 41.4167H6.875V2.42708C6.875 1.29331 6.10586 0.375 5.15625 0.375H1.71875C0.769141 0.375 0 1.29331 0 2.42708V45.5208C0 47.7871 1.53936 49.625 3.4375 49.625H53.2812C54.2309 49.625 55 48.7067 55 47.5729V43.4687C55 42.335 54.2309 41.4167 53.2812 41.4167ZM49.8438 4.47917H37.1615C34.8648 4.47917 33.7144 7.79456 35.3386 9.73378L38.819 13.8893L30.9375 23.3006L23.056 13.8905C21.7132 12.2873 19.5368 12.2873 18.1951 13.8905L10.8163 22.7004C10.1449 23.502 10.1449 24.8012 10.8163 25.6028L13.2462 28.5039C13.9176 29.3055 15.0058 29.3055 15.6771 28.5039L20.625 22.5952L28.5065 32.0053C29.8493 33.6085 32.0257 33.6085 33.3674 32.0053L43.6799 19.6928L47.1604 23.8483C48.7846 25.7875 51.5614 24.4139 51.5614 21.6718V6.53125C51.5625 5.39747 50.7934 4.47917 49.8438 4.47917Z" fill="white"/>
</svg>
