<svg width="25" height="25" viewBox="0 0 64 63" fill="none" xmlns="http://www.w3.org/2000/svg">
<path d="M32 0.625C49.675 0.625 64 13.4574 64 29.2946C64 36.1312 61.325 42.389 56.875 47.3097C58.4375 54.2565 63.6625 60.4453 63.725 60.5142C64 60.8312 64.075 61.2999 63.9125 61.7134C63.75 62.1269 63.4 62.375 63 62.375C54.7125 62.375 48.5 57.9919 45.425 55.2903C41.3375 56.9857 36.8 57.9643 32 57.9643C14.325 57.9643 0 45.1319 0 29.2946C0 13.4574 14.325 0.625 32 0.625ZM48 33.7054C50.2125 33.7054 52 31.7343 52 29.2946C52 26.855 50.2125 24.8839 48 24.8839C45.7875 24.8839 44 26.855 44 29.2946C44 31.7343 45.7875 33.7054 48 33.7054ZM32 33.7054C34.2125 33.7054 36 31.7343 36 29.2946C36 26.855 34.2125 24.8839 32 24.8839C29.7875 24.8839 28 26.855 28 29.2946C28 31.7343 29.7875 33.7054 32 33.7054ZM16 33.7054C18.2125 33.7054 20 31.7343 20 29.2946C20 26.855 18.2125 24.8839 16 24.8839C13.7875 24.8839 12 26.855 12 29.2946C12 31.7343 13.7875 33.7054 16 33.7054Z" fill="white"/>
</svg>
