<svg width="25" height="25" viewBox="0 0 54 49" fill="none" xmlns="http://www.w3.org/2000/svg">
<path d="M52.3125 40.8333H6.75V2.04167C6.75 0.913646 5.99484 0 5.0625 0H1.6875C0.755156 0 0 0.913646 0 2.04167V44.9167C0 47.1714 1.51137 49 3.375 49H52.3125C53.2448 49 54 48.0864 54 46.9583V42.875C54 41.747 53.2448 40.8333 52.3125 40.8333ZM48.9375 4.08333H36.4859C34.2309 4.08333 33.1014 7.3819 34.6961 9.31128L38.1132 13.4457L30.375 22.8092L22.6368 13.4469C21.3184 11.8519 19.1816 11.8519 17.8643 13.4469L10.6196 22.2121C9.96047 23.0096 9.96047 24.3022 10.6196 25.0997L13.0054 27.9861C13.6645 28.7837 14.7329 28.7837 15.3921 27.9861L20.25 22.1074L27.9882 31.4697C29.3066 33.0648 31.4434 33.0648 32.7607 31.4697L42.8857 19.2197L46.3029 23.3541C47.8976 25.2835 50.6239 23.9169 50.6239 21.1887V6.125C50.625 4.99698 49.8698 4.08333 48.9375 4.08333Z" fill="white"/>
</svg>
